<mxfile host="app.diagrams.net" agent="Mozilla/5.0 (Windows NT 10.0; Win64; x64) AppleWebKit/537.36 (KHTML, like Gecko) Chrome/137.0.0.0 Safari/537.36 Edg/137.0.0.0" version="27.1.6">
  <diagram name="第 1 页" id="TJKE0MhXr6T1J9aUekOW">
    <mxGraphModel dx="1418" dy="1955" grid="1" gridSize="10" guides="1" tooltips="1" connect="1" arrows="1" fold="1" page="1" pageScale="1" pageWidth="827" pageHeight="1169" math="0" shadow="0">
      <root>
        <mxCell id="0" />
        <mxCell id="1" parent="0" />
        <mxCell id="BCoa8AJotRuoX6E0Mg1D-3" value="" style="edgeStyle=orthogonalEdgeStyle;rounded=1;orthogonalLoop=1;jettySize=auto;html=1;fontSize=18;labelBackgroundColor=none;strokeColor=#23445D;fontColor=default;fontStyle=0" parent="1" source="BCoa8AJotRuoX6E0Mg1D-1" target="BCoa8AJotRuoX6E0Mg1D-2" edge="1">
          <mxGeometry relative="1" as="geometry" />
        </mxCell>
        <mxCell id="BCoa8AJotRuoX6E0Mg1D-1" value="启动空壳企业识别模型建设" style="rounded=1;whiteSpace=wrap;html=1;fontSize=18;labelBackgroundColor=none;fillColor=#182E3E;strokeColor=#FFFFFF;fontColor=#FFFFFF;fontStyle=0" parent="1" vertex="1">
          <mxGeometry x="120" y="210" width="120" height="60" as="geometry" />
        </mxCell>
        <mxCell id="BCoa8AJotRuoX6E0Mg1D-5" value="" style="edgeStyle=orthogonalEdgeStyle;rounded=1;orthogonalLoop=1;jettySize=auto;html=1;fontSize=18;labelBackgroundColor=none;strokeColor=#23445D;fontColor=default;fontStyle=0" parent="1" source="BCoa8AJotRuoX6E0Mg1D-2" target="BCoa8AJotRuoX6E0Mg1D-4" edge="1">
          <mxGeometry relative="1" as="geometry" />
        </mxCell>
        <mxCell id="BCoa8AJotRuoX6E0Mg1D-7" value="" style="edgeStyle=orthogonalEdgeStyle;rounded=1;orthogonalLoop=1;jettySize=auto;html=1;fontSize=18;labelBackgroundColor=none;strokeColor=#23445D;fontColor=default;fontStyle=0" parent="1" source="BCoa8AJotRuoX6E0Mg1D-2" target="BCoa8AJotRuoX6E0Mg1D-6" edge="1">
          <mxGeometry relative="1" as="geometry" />
        </mxCell>
        <mxCell id="BCoa8AJotRuoX6E0Mg1D-2" value="建立三源&lt;div&gt;数据仓库&lt;/div&gt;" style="rounded=1;whiteSpace=wrap;html=1;fontSize=18;labelBackgroundColor=none;fillColor=#182E3E;strokeColor=#FFFFFF;fontColor=#FFFFFF;fontStyle=0" parent="1" vertex="1">
          <mxGeometry x="280" y="210" width="120" height="60" as="geometry" />
        </mxCell>
        <mxCell id="BCoa8AJotRuoX6E0Mg1D-14" value="" style="edgeStyle=orthogonalEdgeStyle;rounded=1;orthogonalLoop=1;jettySize=auto;html=1;fontSize=18;labelBackgroundColor=none;strokeColor=#23445D;fontColor=default;fontStyle=0" parent="1" source="BCoa8AJotRuoX6E0Mg1D-4" target="BCoa8AJotRuoX6E0Mg1D-13" edge="1">
          <mxGeometry relative="1" as="geometry" />
        </mxCell>
        <mxCell id="BCoa8AJotRuoX6E0Mg1D-22" value="" style="edgeStyle=orthogonalEdgeStyle;rounded=1;orthogonalLoop=1;jettySize=auto;html=1;fontSize=18;labelBackgroundColor=none;strokeColor=#23445D;fontColor=default;fontStyle=0" parent="1" source="BCoa8AJotRuoX6E0Mg1D-4" target="BCoa8AJotRuoX6E0Mg1D-21" edge="1">
          <mxGeometry relative="1" as="geometry" />
        </mxCell>
        <mxCell id="BCoa8AJotRuoX6E0Mg1D-4" value="异常特征&lt;div&gt;标准化&lt;/div&gt;" style="rounded=1;whiteSpace=wrap;html=1;fontSize=18;labelBackgroundColor=none;fillColor=#182E3E;strokeColor=#FFFFFF;fontColor=#FFFFFF;fontStyle=0" parent="1" vertex="1">
          <mxGeometry x="440" y="210" width="120" height="60" as="geometry" />
        </mxCell>
        <mxCell id="BCoa8AJotRuoX6E0Mg1D-9" value="" style="edgeStyle=orthogonalEdgeStyle;rounded=1;orthogonalLoop=1;jettySize=auto;html=1;fontSize=18;labelBackgroundColor=none;strokeColor=#23445D;fontColor=default;fontStyle=0" parent="1" source="BCoa8AJotRuoX6E0Mg1D-6" target="BCoa8AJotRuoX6E0Mg1D-8" edge="1">
          <mxGeometry relative="1" as="geometry" />
        </mxCell>
        <mxCell id="BCoa8AJotRuoX6E0Mg1D-6" value="关键特征缺失" style="whiteSpace=wrap;html=1;rounded=1;fontSize=18;labelBackgroundColor=none;fillColor=#182E3E;strokeColor=#FFFFFF;fontColor=#FFFFFF;fontStyle=0" parent="1" vertex="1">
          <mxGeometry x="280" y="310" width="120" height="60" as="geometry" />
        </mxCell>
        <mxCell id="BCoa8AJotRuoX6E0Mg1D-12" style="edgeStyle=orthogonalEdgeStyle;rounded=1;orthogonalLoop=1;jettySize=auto;html=1;exitX=1;exitY=0.5;exitDx=0;exitDy=0;entryX=0.5;entryY=1;entryDx=0;entryDy=0;fontSize=18;labelBackgroundColor=none;strokeColor=#23445D;fontColor=default;fontStyle=0" parent="1" source="BCoa8AJotRuoX6E0Mg1D-8" target="BCoa8AJotRuoX6E0Mg1D-4" edge="1">
          <mxGeometry relative="1" as="geometry" />
        </mxCell>
        <mxCell id="BCoa8AJotRuoX6E0Mg1D-8" value="启动工商数据补录流程" style="whiteSpace=wrap;html=1;rounded=1;fontSize=18;labelBackgroundColor=none;fillColor=#182E3E;strokeColor=#FFFFFF;fontColor=#FFFFFF;fontStyle=0" parent="1" vertex="1">
          <mxGeometry x="280" y="410" width="120" height="60" as="geometry" />
        </mxCell>
        <mxCell id="BCoa8AJotRuoX6E0Mg1D-16" value="" style="edgeStyle=orthogonalEdgeStyle;rounded=1;orthogonalLoop=1;jettySize=auto;html=1;fontSize=18;labelBackgroundColor=none;strokeColor=#23445D;fontColor=default;fontStyle=0" parent="1" source="BCoa8AJotRuoX6E0Mg1D-13" target="BCoa8AJotRuoX6E0Mg1D-15" edge="1">
          <mxGeometry relative="1" as="geometry" />
        </mxCell>
        <mxCell id="BCoa8AJotRuoX6E0Mg1D-32" value="" style="edgeStyle=orthogonalEdgeStyle;rounded=1;orthogonalLoop=1;jettySize=auto;html=1;fontSize=18;labelBackgroundColor=none;strokeColor=#23445D;fontColor=default;fontStyle=0" parent="1" source="BCoa8AJotRuoX6E0Mg1D-13" target="BCoa8AJotRuoX6E0Mg1D-31" edge="1">
          <mxGeometry relative="1" as="geometry" />
        </mxCell>
        <mxCell id="BCoa8AJotRuoX6E0Mg1D-13" value="双模型&lt;div&gt;对比验证&lt;/div&gt;" style="whiteSpace=wrap;html=1;rounded=1;fontSize=18;labelBackgroundColor=none;fillColor=#182E3E;strokeColor=#FFFFFF;fontColor=#FFFFFF;fontStyle=0" parent="1" vertex="1">
          <mxGeometry x="600" y="210" width="120" height="60" as="geometry" />
        </mxCell>
        <mxCell id="BCoa8AJotRuoX6E0Mg1D-18" value="" style="edgeStyle=orthogonalEdgeStyle;rounded=1;orthogonalLoop=1;jettySize=auto;html=1;fontSize=18;labelBackgroundColor=none;strokeColor=#23445D;fontColor=default;fontStyle=0" parent="1" source="BCoa8AJotRuoX6E0Mg1D-15" target="BCoa8AJotRuoX6E0Mg1D-17" edge="1">
          <mxGeometry relative="1" as="geometry" />
        </mxCell>
        <mxCell id="BCoa8AJotRuoX6E0Mg1D-27" value="" style="edgeStyle=orthogonalEdgeStyle;rounded=1;orthogonalLoop=1;jettySize=auto;html=1;fontSize=18;labelBackgroundColor=none;strokeColor=#23445D;fontColor=default;fontStyle=0" parent="1" source="BCoa8AJotRuoX6E0Mg1D-15" target="BCoa8AJotRuoX6E0Mg1D-26" edge="1">
          <mxGeometry relative="1" as="geometry" />
        </mxCell>
        <mxCell id="BCoa8AJotRuoX6E0Mg1D-15" value="逻辑回归&lt;div&gt;过拟合&lt;/div&gt;" style="whiteSpace=wrap;html=1;rounded=1;fontSize=18;labelBackgroundColor=none;fillColor=#182E3E;strokeColor=#FFFFFF;fontColor=#FFFFFF;fontStyle=0" parent="1" vertex="1">
          <mxGeometry x="600" y="310" width="120" height="60" as="geometry" />
        </mxCell>
        <mxCell id="BCoa8AJotRuoX6E0Mg1D-29" value="" style="edgeStyle=orthogonalEdgeStyle;rounded=1;orthogonalLoop=1;jettySize=auto;html=1;fontSize=18;labelBackgroundColor=none;strokeColor=#23445D;fontColor=default;fontStyle=0" parent="1" source="BCoa8AJotRuoX6E0Mg1D-17" target="BCoa8AJotRuoX6E0Mg1D-28" edge="1">
          <mxGeometry relative="1" as="geometry" />
        </mxCell>
        <mxCell id="BCoa8AJotRuoX6E0Mg1D-17" value="决策树深度&lt;div&gt;过大&lt;/div&gt;" style="whiteSpace=wrap;html=1;rounded=1;fontSize=18;labelBackgroundColor=none;fillColor=#182E3E;strokeColor=#FFFFFF;fontColor=#FFFFFF;fontStyle=0" parent="1" vertex="1">
          <mxGeometry x="600" y="410" width="120" height="60" as="geometry" />
        </mxCell>
        <mxCell id="BCoa8AJotRuoX6E0Mg1D-24" value="" style="edgeStyle=orthogonalEdgeStyle;rounded=1;orthogonalLoop=1;jettySize=auto;html=1;fontSize=18;labelBackgroundColor=none;strokeColor=#23445D;fontColor=default;fontStyle=0" parent="1" source="BCoa8AJotRuoX6E0Mg1D-21" target="BCoa8AJotRuoX6E0Mg1D-23" edge="1">
          <mxGeometry relative="1" as="geometry" />
        </mxCell>
        <mxCell id="BCoa8AJotRuoX6E0Mg1D-21" value="行业基准缺失" style="rounded=1;whiteSpace=wrap;html=1;fontSize=18;labelBackgroundColor=none;fillColor=#182E3E;strokeColor=#FFFFFF;fontColor=#FFFFFF;fontStyle=0" parent="1" vertex="1">
          <mxGeometry x="440" y="110" width="120" height="60" as="geometry" />
        </mxCell>
        <mxCell id="BCoa8AJotRuoX6E0Mg1D-25" style="edgeStyle=orthogonalEdgeStyle;rounded=1;orthogonalLoop=1;jettySize=auto;html=1;exitX=1;exitY=0.5;exitDx=0;exitDy=0;entryX=0.5;entryY=0;entryDx=0;entryDy=0;fontSize=18;labelBackgroundColor=none;strokeColor=#23445D;fontColor=default;fontStyle=0" parent="1" source="BCoa8AJotRuoX6E0Mg1D-23" target="BCoa8AJotRuoX6E0Mg1D-13" edge="1">
          <mxGeometry relative="1" as="geometry" />
        </mxCell>
        <mxCell id="BCoa8AJotRuoX6E0Mg1D-23" value="引入第三方行业数据库" style="rounded=1;whiteSpace=wrap;html=1;fontSize=18;labelBackgroundColor=none;fillColor=#182E3E;strokeColor=#FFFFFF;fontColor=#FFFFFF;fontStyle=0" parent="1" vertex="1">
          <mxGeometry x="440" y="10" width="120" height="60" as="geometry" />
        </mxCell>
        <mxCell id="BCoa8AJotRuoX6E0Mg1D-33" style="edgeStyle=orthogonalEdgeStyle;rounded=1;orthogonalLoop=1;jettySize=auto;html=1;exitX=0.5;exitY=0;exitDx=0;exitDy=0;entryX=0.5;entryY=1;entryDx=0;entryDy=0;fontSize=18;labelBackgroundColor=none;strokeColor=#23445D;fontColor=default;fontStyle=0" parent="1" source="BCoa8AJotRuoX6E0Mg1D-26" target="BCoa8AJotRuoX6E0Mg1D-31" edge="1">
          <mxGeometry relative="1" as="geometry" />
        </mxCell>
        <mxCell id="BCoa8AJotRuoX6E0Mg1D-26" value="增加L2正则化处理" style="whiteSpace=wrap;html=1;rounded=1;fontSize=18;labelBackgroundColor=none;fillColor=#182E3E;strokeColor=#FFFFFF;fontColor=#FFFFFF;fontStyle=0" parent="1" vertex="1">
          <mxGeometry x="760" y="310" width="120" height="60" as="geometry" />
        </mxCell>
        <mxCell id="BCoa8AJotRuoX6E0Mg1D-30" style="edgeStyle=orthogonalEdgeStyle;rounded=1;orthogonalLoop=1;jettySize=auto;html=1;exitX=0.5;exitY=0;exitDx=0;exitDy=0;entryX=0.5;entryY=1;entryDx=0;entryDy=0;fontSize=18;labelBackgroundColor=none;strokeColor=#23445D;fontColor=default;fontStyle=0" parent="1" source="BCoa8AJotRuoX6E0Mg1D-28" target="BCoa8AJotRuoX6E0Mg1D-26" edge="1">
          <mxGeometry relative="1" as="geometry" />
        </mxCell>
        <mxCell id="BCoa8AJotRuoX6E0Mg1D-28" value="设置max_depth≤5" style="whiteSpace=wrap;html=1;rounded=1;fontSize=18;labelBackgroundColor=none;fillColor=#182E3E;strokeColor=#FFFFFF;fontColor=#FFFFFF;fontStyle=0" parent="1" vertex="1">
          <mxGeometry x="760" y="410" width="120" height="60" as="geometry" />
        </mxCell>
        <mxCell id="BCoa8AJotRuoX6E0Mg1D-35" value="" style="edgeStyle=orthogonalEdgeStyle;rounded=1;orthogonalLoop=1;jettySize=auto;html=1;fontSize=18;labelBackgroundColor=none;strokeColor=#23445D;fontColor=default;fontStyle=0" parent="1" source="BCoa8AJotRuoX6E0Mg1D-31" target="BCoa8AJotRuoX6E0Mg1D-34" edge="1">
          <mxGeometry relative="1" as="geometry" />
        </mxCell>
        <mxCell id="QjI8LqXYQEjhRRhL-J8j-1" style="edgeStyle=orthogonalEdgeStyle;rounded=0;orthogonalLoop=1;jettySize=auto;html=1;exitX=1;exitY=0.5;exitDx=0;exitDy=0;labelBackgroundColor=none;strokeColor=#23445D;fontColor=default;fontStyle=0" parent="1" source="BCoa8AJotRuoX6E0Mg1D-31" target="BCoa8AJotRuoX6E0Mg1D-39" edge="1">
          <mxGeometry relative="1" as="geometry" />
        </mxCell>
        <mxCell id="BCoa8AJotRuoX6E0Mg1D-31" value="特征重要性&lt;div&gt;分析&lt;/div&gt;" style="whiteSpace=wrap;html=1;rounded=1;fontSize=18;labelBackgroundColor=none;fillColor=#182E3E;strokeColor=#FFFFFF;fontColor=#FFFFFF;fontStyle=0" parent="1" vertex="1">
          <mxGeometry x="760" y="210" width="120" height="60" as="geometry" />
        </mxCell>
        <mxCell id="BCoa8AJotRuoX6E0Mg1D-37" value="" style="edgeStyle=orthogonalEdgeStyle;rounded=1;orthogonalLoop=1;jettySize=auto;html=1;fontSize=18;labelBackgroundColor=none;strokeColor=#23445D;fontColor=default;fontStyle=0" parent="1" source="BCoa8AJotRuoX6E0Mg1D-34" target="BCoa8AJotRuoX6E0Mg1D-36" edge="1">
          <mxGeometry relative="1" as="geometry" />
        </mxCell>
        <mxCell id="BCoa8AJotRuoX6E0Mg1D-34" value="特征&lt;div&gt;共线性干扰&lt;/div&gt;" style="whiteSpace=wrap;html=1;rounded=1;fontSize=18;labelBackgroundColor=none;fillColor=#182E3E;strokeColor=#FFFFFF;fontColor=#FFFFFF;fontStyle=0" parent="1" vertex="1">
          <mxGeometry x="760" y="110" width="120" height="60" as="geometry" />
        </mxCell>
        <mxCell id="BCoa8AJotRuoX6E0Mg1D-41" style="edgeStyle=orthogonalEdgeStyle;rounded=1;orthogonalLoop=1;jettySize=auto;html=1;exitX=1;exitY=0.5;exitDx=0;exitDy=0;entryX=0.5;entryY=0;entryDx=0;entryDy=0;fontSize=18;labelBackgroundColor=none;strokeColor=#23445D;fontColor=default;fontStyle=0" parent="1" source="BCoa8AJotRuoX6E0Mg1D-36" target="BCoa8AJotRuoX6E0Mg1D-39" edge="1">
          <mxGeometry relative="1" as="geometry" />
        </mxCell>
        <mxCell id="BCoa8AJotRuoX6E0Mg1D-36" value="VIF值筛选&amp;lt;10" style="whiteSpace=wrap;html=1;rounded=1;fontSize=18;labelBackgroundColor=none;fillColor=#182E3E;strokeColor=#FFFFFF;fontColor=#FFFFFF;fontStyle=0" parent="1" vertex="1">
          <mxGeometry x="760" y="10" width="120" height="60" as="geometry" />
        </mxCell>
        <mxCell id="BCoa8AJotRuoX6E0Mg1D-43" value="" style="edgeStyle=orthogonalEdgeStyle;rounded=1;orthogonalLoop=1;jettySize=auto;html=1;fontSize=18;labelBackgroundColor=none;strokeColor=#23445D;fontColor=default;fontStyle=0" parent="1" source="BCoa8AJotRuoX6E0Mg1D-39" target="BCoa8AJotRuoX6E0Mg1D-42" edge="1">
          <mxGeometry relative="1" as="geometry" />
        </mxCell>
        <mxCell id="BCoa8AJotRuoX6E0Mg1D-47" value="" style="edgeStyle=orthogonalEdgeStyle;rounded=1;orthogonalLoop=1;jettySize=auto;html=1;fontSize=18;labelBackgroundColor=none;strokeColor=#23445D;fontColor=default;fontStyle=0" parent="1" source="BCoa8AJotRuoX6E0Mg1D-39" target="BCoa8AJotRuoX6E0Mg1D-46" edge="1">
          <mxGeometry relative="1" as="geometry" />
        </mxCell>
        <mxCell id="BCoa8AJotRuoX6E0Mg1D-39" value="三级预警机制搭建" style="whiteSpace=wrap;html=1;rounded=1;fontSize=18;labelBackgroundColor=none;fillColor=#182E3E;strokeColor=#FFFFFF;fontColor=#FFFFFF;fontStyle=0" parent="1" vertex="1">
          <mxGeometry x="920" y="210" width="120" height="60" as="geometry" />
        </mxCell>
        <mxCell id="BCoa8AJotRuoX6E0Mg1D-45" value="" style="edgeStyle=orthogonalEdgeStyle;rounded=1;orthogonalLoop=1;jettySize=auto;html=1;fontSize=18;labelBackgroundColor=none;strokeColor=#23445D;fontColor=default;fontStyle=0" parent="1" source="BCoa8AJotRuoX6E0Mg1D-42" target="BCoa8AJotRuoX6E0Mg1D-44" edge="1">
          <mxGeometry relative="1" as="geometry" />
        </mxCell>
        <mxCell id="BCoa8AJotRuoX6E0Mg1D-42" value="阈值设置&lt;div&gt;不合理&lt;/div&gt;" style="whiteSpace=wrap;html=1;rounded=1;fontSize=18;labelBackgroundColor=none;fillColor=#182E3E;strokeColor=#FFFFFF;fontColor=#FFFFFF;fontStyle=0" parent="1" vertex="1">
          <mxGeometry x="920" y="310" width="120" height="60" as="geometry" />
        </mxCell>
        <mxCell id="QjI8LqXYQEjhRRhL-J8j-2" style="edgeStyle=orthogonalEdgeStyle;rounded=0;orthogonalLoop=1;jettySize=auto;html=1;exitX=1;exitY=0.5;exitDx=0;exitDy=0;entryX=0.5;entryY=1;entryDx=0;entryDy=0;labelBackgroundColor=none;strokeColor=#23445D;fontColor=default;fontStyle=0" parent="1" source="BCoa8AJotRuoX6E0Mg1D-44" target="BCoa8AJotRuoX6E0Mg1D-46" edge="1">
          <mxGeometry relative="1" as="geometry" />
        </mxCell>
        <mxCell id="BCoa8AJotRuoX6E0Mg1D-44" value="ROC曲线&lt;div&gt;动态调优&lt;/div&gt;" style="whiteSpace=wrap;html=1;rounded=1;fontSize=18;labelBackgroundColor=none;fillColor=#182E3E;strokeColor=#FFFFFF;fontColor=#FFFFFF;fontStyle=0" parent="1" vertex="1">
          <mxGeometry x="920" y="410" width="120" height="60" as="geometry" />
        </mxCell>
        <mxCell id="BCoa8AJotRuoX6E0Mg1D-50" value="" style="edgeStyle=orthogonalEdgeStyle;rounded=1;orthogonalLoop=1;jettySize=auto;html=1;fontSize=18;labelBackgroundColor=none;strokeColor=#23445D;fontColor=default;fontStyle=0" parent="1" source="BCoa8AJotRuoX6E0Mg1D-46" target="BCoa8AJotRuoX6E0Mg1D-49" edge="1">
          <mxGeometry relative="1" as="geometry" />
        </mxCell>
        <mxCell id="BCoa8AJotRuoX6E0Mg1D-46" value="系统对接联调" style="whiteSpace=wrap;html=1;rounded=1;fontSize=18;labelBackgroundColor=none;fillColor=#182E3E;strokeColor=#FFFFFF;fontColor=#FFFFFF;fontStyle=0" parent="1" vertex="1">
          <mxGeometry x="1080" y="210" width="120" height="60" as="geometry" />
        </mxCell>
        <mxCell id="BCoa8AJotRuoX6E0Mg1D-49" value="模型上线运行" style="whiteSpace=wrap;html=1;rounded=1;fontSize=18;labelBackgroundColor=none;fillColor=#182E3E;strokeColor=#FFFFFF;fontColor=#FFFFFF;fontStyle=0" parent="1" vertex="1">
          <mxGeometry x="1241" y="210" width="120" height="60" as="geometry" />
        </mxCell>
        <mxCell id="BCoa8AJotRuoX6E0Mg1D-53" value="A&lt;sub&gt;0&lt;/sub&gt;" style="text;html=1;align=center;verticalAlign=middle;whiteSpace=wrap;rounded=0;fontColor=#000000;fontSize=18;labelBackgroundColor=none;fontStyle=0" parent="1" vertex="1">
          <mxGeometry x="120" y="180" width="60" height="30" as="geometry" />
        </mxCell>
        <mxCell id="BCoa8AJotRuoX6E0Mg1D-54" value="A&lt;span style=&quot;font-size: 15px;&quot;&gt;1&lt;/span&gt;" style="text;html=1;align=center;verticalAlign=middle;whiteSpace=wrap;rounded=0;fontColor=#000000;fontSize=18;labelBackgroundColor=none;fontStyle=0" parent="1" vertex="1">
          <mxGeometry x="280" y="180" width="60" height="30" as="geometry" />
        </mxCell>
        <mxCell id="BCoa8AJotRuoX6E0Mg1D-55" value="A&lt;span style=&quot;font-size: 15px;&quot;&gt;2&lt;/span&gt;" style="text;html=1;align=center;verticalAlign=middle;whiteSpace=wrap;rounded=0;fontColor=#000000;fontSize=18;labelBackgroundColor=none;fontStyle=0" parent="1" vertex="1">
          <mxGeometry x="440" y="180" width="60" height="30" as="geometry" />
        </mxCell>
        <mxCell id="BCoa8AJotRuoX6E0Mg1D-56" value="A&lt;span style=&quot;font-size: 15px;&quot;&gt;3&lt;/span&gt;" style="text;html=1;align=center;verticalAlign=middle;whiteSpace=wrap;rounded=0;fontColor=#000000;fontSize=18;labelBackgroundColor=none;fontStyle=0" parent="1" vertex="1">
          <mxGeometry x="600" y="180" width="60" height="30" as="geometry" />
        </mxCell>
        <mxCell id="BCoa8AJotRuoX6E0Mg1D-57" value="A&lt;span style=&quot;font-size: 15px;&quot;&gt;4&lt;/span&gt;" style="text;html=1;align=center;verticalAlign=middle;whiteSpace=wrap;rounded=0;fontColor=#000000;fontSize=18;labelBackgroundColor=none;fontStyle=0" parent="1" vertex="1">
          <mxGeometry x="760" y="180" width="60" height="30" as="geometry" />
        </mxCell>
        <mxCell id="BCoa8AJotRuoX6E0Mg1D-58" value="A&lt;span style=&quot;font-size: 15px;&quot;&gt;5&lt;/span&gt;" style="text;html=1;align=center;verticalAlign=middle;whiteSpace=wrap;rounded=0;fontColor=#000000;fontSize=18;labelBackgroundColor=none;fontStyle=0" parent="1" vertex="1">
          <mxGeometry x="920" y="180" width="60" height="30" as="geometry" />
        </mxCell>
        <mxCell id="BCoa8AJotRuoX6E0Mg1D-59" value="A&lt;span style=&quot;font-size: 15px;&quot;&gt;6&lt;/span&gt;" style="text;html=1;align=center;verticalAlign=middle;whiteSpace=wrap;rounded=0;fontColor=#000000;fontSize=18;labelBackgroundColor=none;fontStyle=0" parent="1" vertex="1">
          <mxGeometry x="1080" y="180" width="60" height="30" as="geometry" />
        </mxCell>
        <mxCell id="BCoa8AJotRuoX6E0Mg1D-60" value="Z" style="text;html=1;align=center;verticalAlign=middle;whiteSpace=wrap;rounded=0;fontColor=#000000;fontSize=18;labelBackgroundColor=none;fontStyle=0" parent="1" vertex="1">
          <mxGeometry x="1241" y="180" width="60" height="30" as="geometry" />
        </mxCell>
        <mxCell id="BCoa8AJotRuoX6E0Mg1D-61" value="B&lt;span style=&quot;font-size: 15px;&quot;&gt;1&lt;/span&gt;" style="text;html=1;align=center;verticalAlign=middle;whiteSpace=wrap;rounded=0;fontColor=#000000;fontSize=18;labelBackgroundColor=none;fontStyle=0" parent="1" vertex="1">
          <mxGeometry x="280" y="280" width="60" height="30" as="geometry" />
        </mxCell>
        <mxCell id="BCoa8AJotRuoX6E0Mg1D-62" value="B&lt;span style=&quot;font-size: 15px;&quot;&gt;2&lt;/span&gt;" style="text;html=1;align=center;verticalAlign=middle;whiteSpace=wrap;rounded=0;fontColor=#000000;fontSize=18;labelBackgroundColor=none;fontStyle=0" parent="1" vertex="1">
          <mxGeometry x="280" y="380" width="60" height="30" as="geometry" />
        </mxCell>
        <mxCell id="BCoa8AJotRuoX6E0Mg1D-64" value="C&lt;span style=&quot;font-size: 15px;&quot;&gt;1&lt;/span&gt;" style="text;html=1;align=center;verticalAlign=middle;whiteSpace=wrap;rounded=0;fontColor=#000000;fontSize=18;labelBackgroundColor=none;fontStyle=0" parent="1" vertex="1">
          <mxGeometry x="440" y="80" width="60" height="30" as="geometry" />
        </mxCell>
        <mxCell id="BCoa8AJotRuoX6E0Mg1D-66" value="C&lt;span style=&quot;font-size: 15px;&quot;&gt;2&lt;/span&gt;" style="text;html=1;align=center;verticalAlign=middle;whiteSpace=wrap;rounded=0;fontColor=#000000;fontSize=18;labelBackgroundColor=none;fontStyle=0" parent="1" vertex="1">
          <mxGeometry x="440" y="-20" width="60" height="30" as="geometry" />
        </mxCell>
        <mxCell id="BCoa8AJotRuoX6E0Mg1D-67" value="D&lt;span style=&quot;font-size: 15px;&quot;&gt;1&lt;/span&gt;" style="text;html=1;align=center;verticalAlign=middle;whiteSpace=wrap;rounded=0;fontColor=#000000;fontSize=18;labelBackgroundColor=none;fontStyle=0" parent="1" vertex="1">
          <mxGeometry x="600" y="280" width="60" height="30" as="geometry" />
        </mxCell>
        <mxCell id="BCoa8AJotRuoX6E0Mg1D-68" value="E&lt;span style=&quot;font-size: 15px;&quot;&gt;1&lt;/span&gt;" style="text;html=1;align=center;verticalAlign=middle;whiteSpace=wrap;rounded=0;fontColor=#000000;fontSize=18;labelBackgroundColor=none;fontStyle=0" parent="1" vertex="1">
          <mxGeometry x="600" y="380" width="60" height="30" as="geometry" />
        </mxCell>
        <mxCell id="BCoa8AJotRuoX6E0Mg1D-69" value="E&lt;span style=&quot;font-size: 15px;&quot;&gt;2&lt;/span&gt;" style="text;html=1;align=center;verticalAlign=middle;whiteSpace=wrap;rounded=0;fontColor=#000000;fontSize=18;labelBackgroundColor=none;fontStyle=0" parent="1" vertex="1">
          <mxGeometry x="760" y="380" width="60" height="30" as="geometry" />
        </mxCell>
        <mxCell id="BCoa8AJotRuoX6E0Mg1D-70" value="D&lt;span style=&quot;font-size: 15px;&quot;&gt;2&lt;/span&gt;" style="text;html=1;align=center;verticalAlign=middle;whiteSpace=wrap;rounded=0;fontColor=#000000;fontSize=18;labelBackgroundColor=none;fontStyle=0" parent="1" vertex="1">
          <mxGeometry x="760" y="280" width="60" height="30" as="geometry" />
        </mxCell>
        <mxCell id="BCoa8AJotRuoX6E0Mg1D-71" value="F&lt;span style=&quot;font-size: 15px;&quot;&gt;1&lt;/span&gt;" style="text;html=1;align=center;verticalAlign=middle;whiteSpace=wrap;rounded=0;fontColor=#000000;fontSize=18;labelBackgroundColor=none;fontStyle=0" parent="1" vertex="1">
          <mxGeometry x="760" y="80" width="60" height="30" as="geometry" />
        </mxCell>
        <mxCell id="BCoa8AJotRuoX6E0Mg1D-72" value="F&lt;span style=&quot;font-size: 15px;&quot;&gt;2&lt;/span&gt;" style="text;html=1;align=center;verticalAlign=middle;whiteSpace=wrap;rounded=0;fontColor=#000000;fontSize=18;labelBackgroundColor=none;fontStyle=0" parent="1" vertex="1">
          <mxGeometry x="760" y="-20" width="60" height="30" as="geometry" />
        </mxCell>
        <mxCell id="BCoa8AJotRuoX6E0Mg1D-74" value="G&lt;span style=&quot;font-size: 15px;&quot;&gt;1&lt;/span&gt;" style="text;html=1;align=center;verticalAlign=middle;whiteSpace=wrap;rounded=0;fontColor=#000000;fontSize=18;labelBackgroundColor=none;fontStyle=0" parent="1" vertex="1">
          <mxGeometry x="920" y="280" width="60" height="30" as="geometry" />
        </mxCell>
        <mxCell id="BCoa8AJotRuoX6E0Mg1D-76" value="G&lt;span style=&quot;font-size: 15px;&quot;&gt;2&lt;/span&gt;" style="text;html=1;align=center;verticalAlign=middle;whiteSpace=wrap;rounded=0;fontColor=#000000;fontSize=18;labelBackgroundColor=none;fontStyle=0" parent="1" vertex="1">
          <mxGeometry x="920" y="380" width="60" height="30" as="geometry" />
        </mxCell>
      </root>
    </mxGraphModel>
  </diagram>
</mxfile>
